<?xml version="1.0" encoding="UTF-8" standalone="no"?>
<svg
   version="1.0"
   width="1024px"
   height="1024px"
   viewBox="0 0 1024 1024"
   preserveAspectRatio="xMidYMid meet"
   id="svg48"
   sodipodi:docname="pirate_ship_full_bottom.svg"
   inkscape:version="1.4 (e7c3feb100, 2024-10-09)"
   xmlns:inkscape="http://www.inkscape.org/namespaces/inkscape"
   xmlns:sodipodi="http://sodipodi.sourceforge.net/DTD/sodipodi-0.dtd"
   xmlns="http://www.w3.org/2000/svg"
   xmlns:svg="http://www.w3.org/2000/svg">
  <defs
     id="defs48" />
  <sodipodi:namedview
     id="namedview48"
     pagecolor="#ffffff"
     bordercolor="#999999"
     borderopacity="1"
     inkscape:showpageshadow="2"
     inkscape:pageopacity="0"
     inkscape:pagecheckerboard="0"
     inkscape:deskcolor="#d1d1d1"
     inkscape:zoom="1.0117187"
     inkscape:cx="471.4749"
     inkscape:cy="388.94209"
     inkscape:window-width="1914"
     inkscape:window-height="1046"
     inkscape:window-x="0"
     inkscape:window-y="0"
     inkscape:window-maximized="0"
     inkscape:current-layer="svg48" />
  <g
     fill="#131f1d"
     id="g1">
    <path
       d="M 376.57452,713.11004 C 349.13742,694.63189 360.57398,705.53676 343.5,681.8 332.2,666 326,651.7 316,617.5 c -5.6,-19.1 -11.8,-33.2 -19.9,-45.7 -6.5,-10 -7.8,-11.3 -25.6,-26.1 -17,-14.3 -34.2,-27.6 -53.1,-41.2 -6.2,-4.5 -6.9,-5.3 -6.9,-8.5 0,-2.7 0.6,-3.7 2.8,-5 2.7,-1.5 3.1,-1.3 16,5.4 17.6,9.2 54.2,29.5 72.4,40.3 20.5,12.1 28,15.9 33.8,17.2 12.3,2.7 62.9,8 77.5,8.2 4.7,0 10.7,0.4 13.5,0.7 l 4.9,0.7 2.7,7.1 c 3.4,9.3 5.8,13.1 11.8,18.7 10.3,9.6 22.2,13.5 44.3,14.5 l 14.8,0.7 V 574.3 544 h -70 -70.1 l -2.3,-2.3 c -3.3,-3.3 -16.8,-31.2 -21,-43.6 -11.6,-33.6 -12.4,-76.6 -2.1,-112.6 2.9,-10.1 14,-33.5 20.9,-43.8 4.4,-6.7 4.5,-6.8 2.5,-8.8 -2.6,-2.6 -2.5,-7.4 0.3,-9.3 2,-1.4 10.5,-1.6 72,-1.6 H 505 V 317.5 313 H 467.5 430 l -1.9,-3.7 c -2.8,-5.6 -7.6,-20.6 -9.7,-30.3 -1.4,-6.5 -1.8,-12.9 -1.9,-27.5 0,-20.2 1,-27.1 5.9,-42.5 2.3,-7.4 2.4,-7.5 0.5,-9.6 -2.3,-2.5 -2.4,-5.7 -0.3,-7.8 1.2,-1.3 4,-1.6 12.7,-1.7 6.2,-0.1 13,-0.2 15.2,-0.3 2.2,-0.1 15.3,-0.3 29.2,-0.4 l 25.1,-0.2 0.4,-33.2 c 0.3,-30.7 0.2,-33.5 -1.4,-35.7 -2.1,-2.7 -2.4,-9.8 -0.5,-12.1 4.3,-5.5 11.7,-6.6 16.6,-2.4 4.2,3.5 4.9,8.1 2,13.3 -1.2,2.3 -1.9,4.4 -1.6,4.8 0.4,0.4 3.8,-0.3 7.5,-1.5 17.2,-5.5 31.9,-5.4 47.7,0.4 12.1,4.4 23.7,5.5 32.7,3.1 8.1,-2.1 8.4,-1.5 6.8,11.9 -1.3,11 -0.8,18.9 1.6,25.6 0.8,2.2 1.4,4.4 1.4,4.8 0,0.5 -2.1,1.7 -4.7,2.7 -3.7,1.4 -7.5,1.8 -16.8,1.8 -11.6,-0.1 -12.4,-0.2 -22,-4 -8.7,-3.4 -11.2,-4 -19.9,-4.3 -11.2,-0.4 -19.1,0.8 -28.3,4.5 l -6.3,2.5 v 8.9 8.9 h 42.4 c 36.1,0 42.5,0.2 43.6,1.5 1,1.2 0.6,2.9 -1.9,8.9 -6.6,15.9 -9.6,36.1 -8.8,58.9 0.6,17.6 2.6,29.7 6.8,41.7 1.6,4.7 3.2,9.5 3.6,10.8 l 0.5,2.2 H 563.1 520 v 4.5 4.5 h 75.4 c 46.6,0 76.5,0.4 78,1 3.4,1.3 3.4,5.2 0,9.3 -8.8,10.5 -17.8,39.8 -21.4,70.2 -1.6,13.1 -1.6,45.2 -0.1,58.5 2.8,24.5 7.6,41.7 17.4,62.4 l 4.1,8.8 11.1,-0.6 c 12.1,-0.8 65.3,-4.3 80.8,-5.4 5.3,-0.4 10.6,-0.4 11.7,0 2.7,1 2.6,3.1 -1,25 -1.6,10 -3,19.5 -3,21 0,4.5 -3.6,7.3 -11.2,8.8 -7.5,1.4 -6.8,0.1 -8.9,14.5 -0.7,4.4 -1.6,8.8 -2.1,9.8 -1.4,2.8 -5.5,4.9 -10.9,5.6 l -5.2,0.6 -2.7,13.6 c -5.9,29.3 -16.7,53.3 -31.6,69.8 -12.25361,15.71744 -19.70963,16.28302 -37.9,22.2 -13.72571,2.37985 -40.70172,2.98781 -81.4,2.8 -132.47014,-0.6113 -167.98976,0.72356 -204.52548,-6.78996 z M 570,703 c 1.9,-0.6 5.8,-2.4 8.5,-4 l 5,-3 h -23 -23 l 4.3,2.5 c 9.2,5.2 19.7,6.9 28.2,4.5 z m -75.5,-3.5 c 4.5,-2.7 4.7,-3 2.5,-3.3 -3.8,-0.3 -41.5,-1.9 -41.7,-1.7 -0.6,0.4 8.1,4.8 13,6.6 3.9,1.4 7.3,1.9 13.2,1.7 6.8,-0.3 8.7,-0.7 13,-3.3 z m 161.1,-1.1 7.7,-3.9 -6.4,-0.3 c -3.5,-0.2 -14.2,-0.1 -23.8,0.3 -19.3,0.8 -19.3,0.9 -5.6,5.7 10.9,3.9 17.4,3.5 28.1,-1.8 z m -240.1,-1.8 7.9,-4.4 -3.4,-0.6 c -1.9,-0.3 -8.2,-1 -13.9,-1.6 -5.8,-0.7 -14.3,-1.8 -19,-2.5 -4.7,-0.8 -8.7,-1.3 -8.8,-1.1 -0.8,0.7 9.2,8 15.3,11.2 8.8,4.6 12,4.4 21.9,-1 z m 208,-19.5 c 36.1,-2.5 69.7,-6.8 72.1,-9.3 0.6,-0.7 2.8,-4.4 4.8,-8.3 l 3.5,-7 -3.2,-0.3 c -1.8,-0.2 -6.1,0.1 -9.7,0.7 -3.6,0.6 -14.6,1.5 -24.5,2.1 -9.9,0.6 -25,1.5 -33.5,2.1 -8.5,0.5 -35.3,1.3 -59.5,1.6 -73.3,0.9 -153.4,-2.4 -197.5,-8.3 -9.3,-1.2 -12.7,-1.3 -17.7,-0.4 -3.5,0.7 -6.3,1.7 -6.3,2.2 0,0.6 1.2,3.2 2.6,5.7 l 2.5,4.8 11.7,2.6 c 29.1,6.6 72.4,11.1 121.7,12.7 31,1 112.8,0.4 133,-0.9 z m 19.5,-39 c 24.2,-1.8 49,-4.2 58.5,-5.7 5,-0.8 9.3,-1.4 9.7,-1.4 0.7,0 4.3,-14.9 3.7,-15.4 -0.2,-0.2 -4,0.1 -8.4,0.5 -4.4,0.5 -34.7,1.3 -67.3,1.8 -41.8,0.6 -59.7,1.2 -60.5,2 -0.6,0.6 -3,1.1 -5.3,1.1 -2.5,0 -4.7,0.6 -5.4,1.5 -0.8,1 -3.1,1.5 -7.1,1.5 -3.2,0 -6.1,0.5 -6.5,1.1 -0.5,0.8 -8.7,1 -29.8,0.5 -43.9,-1 -61.6,-2.7 -73.7,-7.1 -3.1,-1.2 -12.2,-2 -31.9,-3.1 -15.1,-0.7 -35.4,-2 -45,-2.8 -19.8,-1.6 -30.2,-0.9 -33.3,2.3 -1.7,1.7 -1.8,2.2 -0.5,6.7 l 1.4,4.9 6.9,1.2 c 35.9,6 79.4,9.8 134,11.7 20.6,0.7 147.1,-0.3 160.5,-1.3 z m -88.6,-35.7 c 16,-4.2 25.5,-13 30.6,-28.7 3.1,-9.5 3.5,-9.7 21.7,-9.7 17.5,0 15.9,0.9 18.8,-10.7 0.8,-3.4 1.8,-6.9 2.1,-7.8 0.5,-1.3 -5.3,-1.5 -53.5,-1.5 H 520 v 29.9 30 l 3.8,0.4 c 7.2,0.7 24.6,-0.4 30.6,-1.9 z m 113.1,-4.9 c 16,-0.8 36.2,-2.2 45,-3 8.8,-0.8 16.9,-1.5 18,-1.5 3.3,0 4.4,-1.3 5.1,-5.9 l 0.7,-4.4 -34.4,0.7 c -18.9,0.4 -48.1,1.1 -64.9,1.4 -16.8,0.4 -31.1,1.1 -31.8,1.5 -1,0.7 -5,7.5 -7,12 -0.6,1.2 38.7,0.8 69.3,-0.8 z m -248.9,-6.9 c -4.8,-7.5 -2.4,-6.8 -30.6,-9.1 -16,-1.3 -42.8,-4.4 -54.1,-6.1 l -3.6,-0.6 1.1,6 c 0.6,3.3 1.4,6.3 1.8,6.7 2,2 63,8.8 83.9,9.4 l 5.7,0.1 z M 709,562.5 c 24.5,-1.5 45.1,-3.5 46.1,-4.4 0.4,-0.3 1,-3 1.4,-5.8 l 0.7,-5.3 h -10.6 c -5.8,0 -12.5,0.4 -14.8,1 -4.8,1.1 -26.6,2.7 -52.8,4 -17.8,0.8 -21.5,1.5 -23.9,4.4 -0.8,0.9 -2.9,1.6 -5.1,1.6 -3.5,0 -5.4,1.2 -7.4,4.8 -1,1.7 37.1,1.6 66.4,-0.3 z m -71.6,-35.4 c 7.6,-0.6 14.1,-1.2 14.3,-1.4 0.2,-0.2 -1,-4 -2.6,-8.3 -6.4,-17 -11.2,-37.8 -13.2,-57.8 -1.7,-17.4 -0.7,-57.5 2,-73.7 2.1,-13 7.1,-34.8 9.7,-42.1 0.8,-2.2 1.4,-4.2 1.4,-4.4 0,-0.2 -60,-0.4 -133.3,-0.4 H 382.4 l -2.6,2.8 c -11.8,12.5 -25.9,47.2 -29.3,71.7 -3.5,26.3 -4.2,35.5 -2.6,35.5 0.4,0 1.1,3.7 1.5,8.2 1.4,16.9 9.1,42 18.8,61.6 l 5.1,10.3 125.1,-0.4 c 75.9,-0.3 130.6,-0.9 139,-1.6 z M 486.9,292 c 0.5,0 1.2,-0.3 1.4,-0.7 0.3,-0.5 -1.9,-0.6 -4.8,-0.5 -6.3,0.4 -8.4,2.1 -5.9,4.6 1.5,1.6 1.9,1.5 4.9,-0.9 1.9,-1.4 3.8,-2.5 4.4,-2.5 z m 61.1,3.5 c 2,-2.4 -0.5,-4.5 -5.6,-4.5 -2.8,0 -7,-1.2 -11.8,-3.4 -7.2,-3.3 -7.6,-3.6 -7.6,-6.8 0,-2.5 0.8,-4 3.2,-6.1 l 3.3,-2.8 -6,2.7 c -8.2,3.7 -13.1,4.1 -19,1.5 -5.4,-2.4 -6.4,-2.6 -4.7,-0.9 0.7,0.7 1.2,3.1 1.2,5.3 0,3.7 -0.4,4.3 -3.2,5.8 -2.5,1.2 -2.8,1.6 -1.3,1.6 1.1,0.1 4,-1 6.4,-2.4 7,-4 12.4,-3.5 26.7,2.6 6.5,2.9 12.5,6 13.2,7 1.6,2.3 3.5,2.4 5.2,0.4 z M 495,272 c -1.9,-1.1 -3.9,-1.9 -4.5,-1.9 -0.5,0 0.6,0.8 2.5,1.9 1.9,1.1 4,1.9 4.5,1.9 0.6,0 -0.6,-0.8 -2.5,-1.9 z m -10,-4.2 c -2.5,-1.2 -5.1,-2.9 -5.8,-3.9 -1.6,-2.3 -4.1,-2.4 -4.9,-0.3 -0.9,2.3 2.3,4.4 6.6,4.4 2,0 4.3,0.5 5.1,1 0.8,0.5 2,0.9 2.5,0.9 0.6,0 -1,-1 -3.5,-2.1 z m 59.5,1.2 c 0.3,-0.5 1.5,-1 2.5,-1 1.1,0 2.4,-0.9 3,-2 0.9,-1.7 0.7,-2.2 -1.6,-3.2 -2.4,-1.1 -2.9,-1 -4.8,1.4 -1.1,1.4 -3.7,3.3 -5.6,4.1 l -3.5,1.5 4.7,0.1 c 2.6,0.1 5,-0.3 5.3,-0.9 z m -42.6,-13 c 1.3,0 1.6,-0.8 1.3,-4 -0.3,-3.3 -0.8,-4 -2.6,-4 -1.9,0 -2.1,0.4 -1.7,5.2 0.2,2.9 0.6,4.7 0.8,4.1 0.3,-0.7 1.2,-1.3 2.2,-1.3 z m 11.6,1 c 0.4,-0.6 -0.6,-1 -2.2,-1 -2.2,0 -2.5,0.2 -1.3,1 1.9,1.2 2.7,1.2 3.5,0 z m 13.2,-7.7 c 1.4,-1.1 1.1,-1.3 -2.4,-1.3 -4,0 -4.1,0 -4.5,4 -0.3,3.3 0,4 1.4,4 0.9,0 2,0.6 2.5,1.3 0.5,0.7 0.9,-0.3 1.1,-2.8 0.2,-2.2 1,-4.6 1.9,-5.2 z m -12.2,-12.5 c 1,-8.8 2.2,-9.8 11.1,-9.8 6.4,0 7.5,0.3 8.8,2.2 0.9,1.2 1.6,3.6 1.7,5.3 0,2.6 0.2,2.7 0.9,1 1.5,-3.4 1.1,-6.8 -1.4,-12.1 -6,-12.9 -21.2,-20.2 -31.1,-15 -1.6,0.9 -3.5,1.6 -4.1,1.6 -0.6,0 -2.9,1.6 -5.1,3.5 -7.2,6.1 -11,16.7 -8.3,23 0.7,1.7 0.9,1.4 1,-1.5 0.1,-2.6 0.9,-4.1 3,-5.8 2.5,-2 3.9,-2.3 10.2,-2 l 7.3,0.3 0.3,7.8 c 0.3,7.3 0.4,7.7 2.6,7.7 2.2,0 2.5,-0.5 3.1,-6.2 z"
       id="path1"
       sodipodi:nodetypes="ccccccscccccccccccccccscccscsccccccccccccscccccccccccccsccccccccsccccccccccsccccccccccsccscccccscccccccccccccccccccccccccccccccccssccccscccccccscccsscscccccccccccccsccsccccccssccccccccccccscccccccscccscccsccccsscccscccccsccccscsssccccssccccccssssscccsssccscccccccscsccssscscscsscccscccccscccccccsc" />
  </g>
  <g
     fill="#476c4b"
     id="g2">
    <path
       d="M365.2 521.8 c-9.7 -19.6 -17.4 -44.7 -18.8 -61.6 -0.4 -4.5 -1.1 -8.2 -1.5 -8.2 -3.1 0 1.9 -44.2 6.9 -61.5 6.2 -21 16.8 -43 25 -51.7 l2.6 -2.8 137.3 0 c75.5 0 137.3 0.1 137.3 0.3 0 0.2 -1.1 3.6 -2.5 7.6 -7.9 23.4 -12.4 50.3 -13.2 78.8 -1 37.2 3.6 66.4 15.2 95.3 2.1 5.3 3.3 9.6 2.8 10.1 -2.4 2.4 -36.1 3.2 -158.4 3.6 l-127.6 0.4 -5.1 -10.3z m147.6 -29 c0.5 -0.7 5.7 -13 11.5 -27.3 5.8 -14.3 15.7 -38.1 22.1 -53 10.3 -23.9 12.1 -27.5 16.3 -31.7 l4.7 -4.8 -18.2 0 c-10 0 -18.2 0.4 -18.2 0.9 0 0.4 0.9 2 2 3.4 1.5 1.8 2 4 2 8.2 0 5.9 -2.1 11.6 -21.6 58.7 l-6.9 16.8 -3.6 0 c-2 0 -3.9 -0.6 -4.2 -1.2 -0.3 -0.7 -4.1 -9.8 -8.5 -20.3 -17 -40.5 -19.4 -46.9 -20 -52.8 -0.5 -5.5 -0.3 -6 2.8 -9.2 1.9 -1.9 3.1 -3.7 2.8 -4 -0.3 -0.3 -9.9 -0.4 -21.4 -0.3 l-20.9 0.3 4.5 3.1 c5 3.5 1.1 -5 38.8 84.9 5.8 13.8 11 25.6 11.6 26.4 1.8 2.3 4.8 3 14.2 3 6.2 0.1 9.5 -0.3 10.2 -1.1z"
       id="path2" />
  </g>
  <g
     fill="#717767"
     id="g21">
    <path
       d="m 549,706.1 c -1.4,-0.4 -58.40759,0.0191 -70,-0.3 l -11.5,-0.3 c -37.00808,0.0458 -40.36701,-0.13578 -63.7,-1.5 -5.59045,-0.32686 -7.7,-0.5 -13.6,-3.6 -8.9,-4.6 -20.4,-14.9 -18.2,-16.3 2.2,-1.5 7.2,-1.3 21.6,0.9 17.7,2.7 52.5,5.7 78.9,7 0.29603,0.021 52.52411,0.93649 90.8,0.6 81.7,-0.8 96.72278,-1.27645 102.7,-2.35869 4.23591,-0.8 5.20579,-1.35289 12.1471,-2.61776 L 688.4,686.8 l -2.8,3.3 c -2.4,2.9 -2.82635,3.58736 -6.20325,7.14512 -4.03682,2.23466 -6.1917,3.44838 -13.30434,6.34946 L 650.5,705.5 H 640 c -37.66401,-0.25566 -50.21868,0.35852 -77.5,1.2 -6,0.1 -12.1,-0.1 -13.5,-0.6 z"
       id="path3"
       sodipodi:nodetypes="cccsccccccccccccccc" />
    <path
       d="M487.5 681 c-49.2 -1.6 -92.6 -6.1 -121.7 -12.7 l-11.6 -2.6 -3.6 -6.5 c-2 -3.6 -3.6 -7 -3.6 -7.7 0 -1.9 2.1 -3.3 6.5 -4 2.2 -0.4 4.5 -1.2 5.2 -1.7 0.7 -0.6 6.9 -0.1 16.5 1.1 48.5 6.4 126.1 9.8 198.3 8.8 22.6 -0.4 48 -1.1 56.5 -1.6 8.5 -0.6 23.6 -1.5 33.5 -2.1 9.9 -0.6 20.9 -1.5 24.5 -2.1 3.6 -0.6 9.9 -0.9 14.2 -0.7 l7.6 0.3 -5 10 c-2.7 5.5 -5.5 10.6 -6.2 11.3 -2.4 2.5 -35.8 6.8 -72.1 9.3 -19.9 1.3 -107.6 1.9 -139 0.9z"
       id="path5" />
    <path
       d="m 479.5,642.4 c -54.4,-1.9 -98.1,-5.7 -134,-11.7 l -6.9,-1.2 -2.2,-7.7 -2.1,-7.7 2.8,-2.1 c 5,-3.6 16.4,-4.4 38.9,-2.5 10.7,0.8 31.7,2.2 46.5,3 19.2,1 28.3,1.8 31.4,3 11.8,4.3 29.3,6 70.7,7 18.5,0.5 26.4,0.4 26.8,-0.4 0.4,-0.6 3.3,-1.1 6.5,-1.1 9.78284,0 5.28453,-3 12.5,-3 2.3,0 4.7,-0.5 5.3,-1.1 1.90727,-1.90727 113.60088,-2.20395 128.3,-3.9 5.2,-0.5 10.9,-1 12.6,-1 h 3.1 l -2.3,10.7 c -1.3,5.8 -2.5,10.8 -2.7,10.9 -1.3,1.3 -36.3,5.1 -68.7,7.5 -13.3,1 -145.6,2 -166.5,1.3 z"
       id="path6"
       sodipodi:nodetypes="cccccccccccssscsccccc" />
    <path
       d="M547.1 604.6 c0.2 -0.2 3.1 -1.1 6.3 -2 6.1 -1.5 6.6 -0.7 0.7 1.3 -3.3 1.1 -7.9 1.5 -7 0.7z"
       id="path7" />
    <path
       d="M593.4 597.3 c1.8 -2.7 4.3 -6.7 5.5 -9 1.1 -2.3 2.6 -4.5 3.3 -5 1.3 -0.8 20.9 -1.3 99.6 -2.9 31.2 -0.6 38.2 -0.4 38.2 0.6 0 0.7 -0.5 4.2 -1.1 7.7 -0.9 5.2 -1.5 6.4 -3.3 6.8 -11 2.5 -84.3 6.5 -119.3 6.5 l-26.3 0 3.4 -4.7z"
       id="path8" />
    <path
       d="M423.5 600.3 c-31.9 -1.3 -91 -7.5 -93.4 -9.8 -0.3 -0.4 -1.3 -4.5 -2.2 -9.2 -1.4 -7.3 -1.4 -8.6 -0.2 -9 1.7 -0.7 8.4 -0.1 28.8 2.6 8.3 1.1 23.6 2.7 34 3.5 29.3 2.5 26 1.3 33.3 12.3 3.5 5.2 6.2 9.6 6 9.7 -0.2 0 -3 0 -6.3 -0.1z"
       id="path9" />
    <path
       d="M638.6 562.8 c2.1 -6 4.1 -7.8 8.4 -7.8 2.2 0 4.3 -0.7 5.1 -1.6 2.4 -2.9 6.1 -3.6 23.9 -4.4 26.2 -1.3 48 -2.9 52.8 -4 2.3 -0.6 10.7 -1 18.5 -1 l14.4 0 -1.7 8.7 -1.6 8.8 -11 1.2 c-20.6 2.3 -58.9 4.3 -84.6 4.3 l-25.7 0 1.5 -4.2z"
       id="path10" />
    <path
       d="M596.3 564.3 c3.2 -0.2 8.1 -0.2 11 0 2.9 0.2 0.3 0.3 -5.8 0.3 -6 0 -8.4 -0.1 -5.2 -0.3z"
       id="path11" />
    <path
       d="M683.5 532 c1.1 -0.5 4.7 -0.9 8 -0.9 4.2 0 5.4 0.3 4 0.9 -1.1 0.5 -4.7 0.9 -8 0.9 -4.2 0 -5.4 -0.3 -4 -0.9z"
       id="path12" />
    <path
       d="M704 531 c-2.1 -0.7 -1.9 -0.8 1.8 -0.9 2.3 -0.1 4.2 0.4 4.2 0.9 0 1.2 -2.4 1.2 -6 0z"
       id="path13" />
    <path
       d="M746.5 528 c2.9 -1.2 11.4 -1.2 9.5 0 -0.8 0.5 -3.7 0.9 -6.5 0.9 -3.7 0 -4.5 -0.3 -3 -0.9z"
       id="path14" />
    <path
       d="M363.3 323.8 c1.8 -1.7 6.7 -1.8 72.4 -1.8 46.7 0 70.2 0.3 69.8 1 -0.4 0.7 -25.3 1 -71.4 1 -38.9 0 -71.1 0.3 -71.7 0.8 -0.5 0.4 -0.1 -0.1 0.9 -1z"
       id="path15" />
    <path
       d="M651.2 322.3 c3.7 -0.2 10 -0.2 14 0 4 0.1 1 0.3 -6.7 0.3 -7.7 0 -11 -0.1 -7.3 -0.3z"
       id="path16" />
    <path
       d="M421.6 192.7 c0.7 -2 4.1 -3.1 7.5 -2.4 1.8 0.3 1.5 0.5 -1 0.6 -1.9 0 -4.3 0.9 -5.3 1.8 -1.8 1.6 -1.8 1.6 -1.2 0z"
       id="path17" />
    <path
       d="M605.5 126.5 c4.9 -1.8 8.5 -2.2 9.4 -1.2 0.7 0.9 -0.6 1.2 -4.7 1.4 -3.2 0.1 -5.2 0 -4.7 -0.2z"
       id="path18" />
    <path
       d="M524.1 123.6 c0.2 -0.1 2 -0.8 3.9 -1.4 3.2 -1.1 3.3 -1 1.6 0.3 -1.6 1.2 -6.9 2.3 -5.5 1.1z"
       id="path19" />
    <path
       d="M546.5 119 c-1.6 -0.7 -1.3 -0.9 1.8 -0.9 2 -0.1 3.7 0.4 3.7 0.9 0 1.2 -2.7 1.2 -5.5 0z"
       id="path20" />
    <path
       d="M510.8 103.3 c1.2 -0.2 3.2 -0.2 4.5 0 1.2 0.2 0.2 0.4 -2.3 0.4 -2.5 0 -3.5 -0.2 -2.2 -0.4z"
       id="path21" />
  </g>
  <g
     fill="#f6efe5"
     id="g26">
    <path
       d="M488.5 496 c-1.2 -0.4 -2.6 -1.4 -3.1 -2.1 -0.6 -0.8 -5.8 -12.6 -11.6 -26.4 -37.4 -89.2 -33.9 -81.6 -38.2 -84.3 -4 -2.7 -6 -6.1 -5 -8.7 0.5 -1.3 3.9 -1.5 24.8 -1.3 l24.1 0.3 0.3 2.7 c0.2 1.9 -0.7 3.8 -3.3 6.7 -3.2 3.5 -3.6 4.5 -3 7.3 0.9 4.3 27.5 69.1 28.9 70.6 0.9 0.8 0.5 1.5 10.4 -22.3 15 -36.5 19.2 -47.3 19.2 -50 0 -1.5 -1.2 -4.2 -2.6 -6 -1.7 -2.2 -2.4 -4.3 -2.2 -6.2 l0.3 -2.8 21.5 0 21.5 0 0.3 2.2 c0.2 1.6 -1.2 3.9 -4.8 7.7 -4.6 4.9 -6.3 8.1 -16.6 32.3 -6.4 14.7 -16.3 38.5 -22.1 52.8 -5.8 14.3 -11 26.6 -11.5 27.3 -1.2 1.4 -23.9 1.6 -27.3 0.2z"
       id="path23" />
    <path
       d="M366.8 322.3 c1.2 -0.2 3 -0.2 4 0 0.9 0.3 -0.1 0.5 -2.3 0.4 -2.2 0 -3 -0.2 -1.7 -0.4z"
       id="path24" />
    <path
       d="M476.3 299.8 c-1.2 -0.6 -2.6 -2.2 -3.1 -3.7 -1.9 -5.3 2.2 -9.7 8.1 -8.8 2.1 0.3 5.4 -0.6 9.9 -2.6 6.7 -2.9 8 -4.5 5.6 -6.4 -3.2 -2.4 -16.2 -7.3 -19.3 -7.3 -4.2 0 -7.5 -2.9 -7.5 -6.5 0 -5.9 8.1 -8.7 11.7 -4.1 1.1 1.4 7.7 4.9 16.2 8.5 l14.3 6.3 11.4 -5.1 c6.3 -2.8 11.8 -5.1 12.4 -5.1 0.5 0 2.5 -1.6 4.4 -3.5 3.9 -3.9 7.2 -4.4 11.1 -1.9 4.2 2.8 3.3 8.5 -1.9 12.4 -1.8 1.3 -1.9 1.3 -1.1 0 0.6 -1.2 0.5 -1.3 -0.6 -0.2 -0.7 0.6 -3.4 1.2 -6 1.2 -2.6 0 -5.1 0.5 -5.4 1 -0.3 0.6 -1.4 1 -2.3 1 -0.9 0 -3.3 1.4 -5.2 3 l-3.5 2.9 7.8 3.5 c5.2 2.4 9.3 3.6 12.2 3.6 3.4 0 4.7 0.5 5.9 2.2 2.1 3 2 5 -0.5 8.2 -2.7 3.4 -7.1 3.5 -10.5 0.1 -2.7 -2.7 -24.6 -12.5 -28 -12.5 -1.2 0 -4.2 1.1 -6.5 2.5 -2.4 1.4 -5.2 2.5 -6.2 2.5 -2.4 0 -10.4 3.8 -15.1 7.2 -4.2 3 -5 3.2 -8.3 1.6z"
       id="path25" />
    <path
       d="M495.9 260.9 c-0.6 -1.2 -0.9 -3.7 -0.6 -5.5 0.5 -2.9 0.2 -3.5 -2.8 -5.3 -1.9 -1.1 -4.6 -3.9 -6.2 -6.2 -2.3 -3.4 -2.8 -5.6 -3.1 -11.6 -0.4 -6.4 -0.1 -8 2.3 -12.8 2.4 -5.1 9.5 -12.5 11.9 -12.5 0.6 0 2.5 -0.8 4.1 -1.7 4.8 -2.6 16.9 -2.4 22.6 0.5 9.9 4.8 16.9 15 16.9 24.6 0 8 -1.9 12.6 -7.7 18.4 -4.2 4.2 -5.3 6 -5.3 8.6 0 5.3 -4.8 7.8 -7 3.6 -1.3 -2.5 -2.4 -2.5 -5.8 0 l-2.8 2.1 -4.2 -2.3 -4.1 -2.3 -1.6 2.3 c-2 2.8 -5.1 2.8 -6.6 0.1z m20.6 -8.9 c0.4 -0.6 -0.1 -2.2 -1 -3.6 -2.1 -3.3 -6.4 -3 -8.2 0.5 -0.6 1.4 -1 2.9 -0.7 3.3 0.8 1.2 9.2 1 9.9 -0.2z m-12.7 -10.1 c1.8 -2.2 2.3 -3.9 2 -7.1 -0.4 -4.3 -0.4 -4.3 -4.6 -4.6 -8.5 -0.6 -13.2 6.9 -7.7 12.3 3.3 3.4 7.4 3.2 10.3 -0.6z m26.7 0.6 c2.9 -2.8 3.2 -7 0.9 -10.3 -1.2 -1.7 -2.5 -2.2 -5.8 -2.2 -5.2 0 -7.3 2 -7.7 7.4 -0.3 3 0.1 4.2 2 5.7 3.2 2.7 7.7 2.4 10.6 -0.6z"
       id="path26" />
  </g>
  <g
     fill="#000000"
     id="g48">
    <path
       d="M345.4 683.8 c-2.5 -3.5 -5.2 -7.1 -6 -8.1 -0.7 -0.9 -1.4 -2.1 -1.4 -2.6 0 -0.5 -0.6 -1.6 -1.2 -2.3 -2.2 -2.4 -7.5 -13.9 -11.3 -24.8 -2.1 -5.8 -4.1 -11.4 -4.5 -12.5 -0.4 -1.1 -1.3 -4.5 -2 -7.5 -0.7 -3 -2.4 -8.6 -3.7 -12.5 -3.9 -11.4 -4.2 -12.6 -3.3 -12 0.8 0.5 4.8 12.6 10 30.8 5.8 20.3 13.4 36.1 24.6 51.5 2.5 3.4 4.3 6.2 4 6.2 -0.4 0 -2.7 -2.8 -5.2 -6.2z"
       id="path31" />
    <path
       d="M480.4 604.9 c-24.6 -2.2 -41.3 -14.4 -48.4 -35.4 l-1.7 -5 -6.4 -0.2 c-23.2 -0.9 -70.8 -5.6 -88.9 -8.9 -4.3 -0.8 -16.2 -6.6 -26.7 -13.2 -4.3 -2.7 -15.2 -9 -24.3 -14.1 -19.8 -11.2 -21.3 -12.1 -20.7 -12.8 0.5 -0.4 2.2 0.6 10.2 5.5 1.1 0.7 3.4 1.9 5 2.8 1.7 0.8 4.8 2.6 7 3.9 2.2 1.3 6.7 3.8 10 5.5 3.3 1.8 6.6 3.7 7.4 4.3 1.4 1.2 4.7 3.2 7.1 4.3 0.8 0.4 3.3 1.9 5.5 3.3 6.6 4.1 14.7 7.7 20 8.9 4.2 1 32.8 4.7 51.5 6.7 3 0.3 13.8 1 23.9 1.5 20.1 1 21.3 1.4 22.7 7.4 0.4 1.7 0.8 3.3 0.9 3.6 0 0.3 1.7 3.5 3.8 7.2 4.3 7.8 9.3 12.4 18 16.6 9.6 4.7 16.8 6.2 33 6.9 8.1 0.3 15 1 15.3 1.5 0.6 1 -11.5 0.8 -24.2 -0.3z"
       id="path32" />
    <path
       d="M520.1 605.6 c0.2 -0.2 7.6 -0.7 16.4 -0.9 10.1 -0.3 14.5 -0.2 12 0.3 -4 0.9 -29.2 1.4 -28.4 0.6z"
       id="path33" />
    <path
       d="M506.2 574.8 l-0.2 -30.8 -65.2 -0.1 c-35.9 -0.1 -66.6 -0.4 -68.3 -0.8 -1.6 -0.3 27.7 -0.5 65 -0.3 37.4 0.2 68.3 0.6 68.8 1.1 0.4 0.4 0.6 14.4 0.4 31.2 l-0.2 30.4 -0.3 -30.7z"
       id="path34" />
    <path
       d="M769.2 577.3 c1 -1.1 2.2 -6.1 3.2 -12.8 0.9 -6 2.4 -16.2 3.5 -22.5 2.5 -15.2 2.3 -15.5 -7.8 -14.6 -4.2 0.3 -17 1.3 -28.6 2.1 -11.5 0.8 -23.9 1.7 -27.5 2.1 -4.4 0.4 -6.2 0.2 -5.5 -0.4 0.6 -0.6 10.2 -1.6 21.5 -2.2 11.3 -0.6 23.7 -1.5 27.5 -2 9.6 -1.3 21.4 -1.5 22.6 -0.3 1 1 -0.6 18.8 -2.1 22.8 -0.5 1.3 -1.2 5.2 -1.5 8.7 -0.6 5.7 -1.9 13.6 -3.1 18 -0.3 0.9 -1.2 1.9 -2.1 2.3 -1.6 0.5 -1.6 0.4 -0.1 -1.2z"
       id="path35" />
    <path
       d="M611 564.4 c6 -0.8 13 -0.8 13 -0.1 0 0.4 -3.5 0.6 -7.7 0.6 -4.3 -0.1 -6.7 -0.3 -5.3 -0.5z"
       id="path36" />
    <path
       d="M671.5 531.6 c-2.1 -3.2 -8.9 -19 -12.4 -29.1 -6.1 -17.1 -10.1 -44.3 -10.1 -68.1 0 -17.8 1 -32.4 2.3 -32.4 0.5 0 0.7 1.4 0.3 3.3 -3.5 19.1 0 67.1 6.5 89.4 1.1 3.7 2.1 7.5 2.4 8.3 0.2 0.8 0.4 1.6 0.5 1.8 0.2 0.1 0.3 0.5 0.5 1 0.1 0.4 1 2.5 2 4.7 0.9 2.2 1.8 4.5 1.9 5.1 0.1 0.6 1.8 4.2 3.8 8 2 3.8 3.7 7.4 3.7 7.9 0.1 0.6 4.2 0.9 10.9 0.6 13.5 -0.4 13.1 0.4 -0.6 1.2 -9.8 0.6 -10.3 0.5 -11.7 -1.7z"
       id="path37" />
    <path
       d="M337.7 484.2 c-0.9 -3.1 -2.1 -10 -2.7 -15.2 -0.6 -5.2 -1.5 -12.2 -2.1 -15.6 -1.6 -10.7 -0.4 -40.3 1.8 -42.5 0.5 -0.5 0.6 1.6 0.2 4.8 -1.1 8.9 -1 35.3 0.2 46.1 0.6 5.3 1.9 13.7 3 18.6 1 4.9 1.7 9.1 1.6 9.3 -0.2 0.1 -1.1 -2.3 -2 -5.5z"
       id="path38" />
    <path
       d="M344.4 443.5 c0 -4.9 0.1 -7.1 0.3 -4.8 0.2 2.3 0.2 6.4 0 9 -0.2 2.6 -0.3 0.8 -0.3 -4.2z"
       id="path39" />
    <path
       d="M603.6 311.5 c0.4 -0.8 -0.5 -4.3 -1.9 -7.7 -3.6 -9 -6.6 -23.9 -7.8 -38.9 -1.8 -21.2 1.2 -45.6 7.6 -62.4 1.5 -3.8 2.9 -8 3.2 -9.2 l0.5 -2.3 -42.8 -0.2 -42.9 -0.3 -0.1 -7.5 0 -7.5 0.3 7.3 0.4 7.2 43 0 c34.9 0 43.1 0.3 43.5 1.3 0.3 0.8 -0.8 4.3 -2.5 7.8 -5.3 11.6 -8.4 25.9 -9.6 44.9 -0.8 12 1.3 31.8 4.8 46.5 2.8 11.8 2.9 12.2 5.3 16.8 1.8 3.6 1.8 5.7 -0.1 5.7 -0.9 0 -1.2 -0.6 -0.9 -1.5z"
       id="path40" />
    <path
       d="M550.3 270.1 c2.2 -2.6 2.8 -4.3 2.5 -6.7 -0.2 -1.8 0 -3 0.4 -2.8 1.3 0.8 0.9 6.9 -0.4 8.5 -0.7 0.8 -2.2 2.2 -3.3 2.9 -1.3 1 -1 0.3 0.8 -1.9z"
       id="path41" />
    <path
       d="M416.3 252 c0 -3 0.2 -4.3 0.4 -2.7 0.2 1.5 0.2 3.9 0 5.5 -0.2 1.5 -0.4 0.2 -0.4 -2.8z"
       id="path42" />
    <path
       d="M503.9 241.7 c1.8 -2 2.2 -3.4 1.9 -6.1 -0.5 -4.4 0.8 -4.8 1.7 -0.5 0.7 3.3 -1.6 7.8 -4.6 8.7 -0.8 0.3 -0.4 -0.7 1 -2.1z"
       id="path43" />
    <path
       d="M516.5 239 c-0.8 -1.2 0.4 -7 1.4 -7 0.3 0 0.5 1.8 0.3 4 -0.4 4.2 -0.7 4.6 -1.7 3z"
       id="path44" />
    <path
       d="M428.2 190.5 c0.3 -0.3 17.6 -0.8 38.5 -1.2 28.2 -0.4 38.2 -0.3 38.7 0.5 0.5 0.9 -9.2 1.2 -38.5 1.2 -21.6 0 -39 -0.2 -38.7 -0.5z"
       id="path45" />
    <path
       d="M505.1 154.6 c0.2 -19 0.7 -34.2 1.1 -34 1.3 0.8 1 68.4 -0.3 68.4 -0.8 0 -1 -10 -0.8 -34.4z"
       id="path46" />
    <path
       d="M569 122 c-3.4 -1.2 -8.6 -1.9 -13.3 -1.9 -5.6 -0.1 -7.6 -0.4 -7.1 -1.2 0.8 -1.4 16.9 -0.5 18.7 0.9 0.7 0.6 2.7 1.3 4.4 1.7 1.8 0.3 3.5 1.1 3.8 1.6 0.8 1.2 0.1 1.1 -6.5 -1.1z"
       id="path47" />
    <path
       d="M519 121.7 c0 -0.4 0.7 -1.9 1.6 -3.2 1 -1.5 1.5 -3.8 1.2 -5.9 -0.3 -2.8 -0.1 -3.3 0.9 -2.4 2 1.6 1.5 5.1 -1.2 8.8 -1.4 1.9 -2.5 3.1 -2.5 2.7z"
       id="path48" />
  </g>
</svg>
